<?xml version="1.0" encoding="UTF-8"?><svg id="Ebene_2" xmlns="http://www.w3.org/2000/svg" viewBox="0 0 800 512.08"><defs><style>.cls-1{fill:#ff2e4c;}</style></defs><g id="Ebene_1-2"><g><rect class="cls-1" x="364.92" y="93.87" width="70.15" height="70.15" transform="translate(271.05 528.95) rotate(-90)"/><g><polygon class="cls-1" points="176.17 25.8 93.2 25.8 0 241.59 93.2 457.38 176.17 457.38 82.97 241.59 176.17 25.8"/><polygon class="cls-1" points="623.83 25.8 706.8 25.8 800 241.59 706.8 457.38 623.83 457.38 717.03 241.59 623.83 25.8"/><path class="cls-1" d="M439.02,267.25l160.97-69.52V120.72l-.06,.02V0H199.39V197.73l160.97,69.52H200.62v139.17l70.15,33.72v-102.74h92.78v144.42l70.15,30.26v-174.68h97.3v148.25l70.15-30.55v-187.86h-162.14ZM269.54,70.15h260.23l.23,80.79-130.32,56.29-129.85-56.08-.3-81Z"/></g></g></g></svg>